<mxfile host="app.diagrams.net" agent="Mozilla/5.0 (Macintosh; Intel Mac OS X 10_15_7) AppleWebKit/537.36 (KHTML, like Gecko) Chrome/140.0.0.0 Safari/537.36" version="28.2.5">
  <diagram name="Page-1" id="GmAXu2W3FbztkmVpDO5C">
    <mxGraphModel dx="1351" dy="1003" grid="1" gridSize="10" guides="1" tooltips="1" connect="1" arrows="1" fold="1" page="1" pageScale="1" pageWidth="827" pageHeight="1169" background="#ffffff" math="0" shadow="0">
      <root>
        <mxCell id="0" />
        <mxCell id="1" parent="0" />
        <mxCell id="IZQVQYXImKXm4vi6CAaF-3" value="" style="edgeStyle=orthogonalEdgeStyle;rounded=0;orthogonalLoop=1;jettySize=auto;html=1;" parent="1" source="IZQVQYXImKXm4vi6CAaF-1" target="IZQVQYXImKXm4vi6CAaF-2" edge="1">
          <mxGeometry relative="1" as="geometry" />
        </mxCell>
        <mxCell id="IZQVQYXImKXm4vi6CAaF-1" value="start" style="ellipse;whiteSpace=wrap;html=1;" parent="1" vertex="1">
          <mxGeometry x="350" y="60" width="90" height="40" as="geometry" />
        </mxCell>
        <mxCell id="IZQVQYXImKXm4vi6CAaF-5" value="" style="edgeStyle=orthogonalEdgeStyle;rounded=0;orthogonalLoop=1;jettySize=auto;html=1;" parent="1" source="IZQVQYXImKXm4vi6CAaF-2" target="IZQVQYXImKXm4vi6CAaF-4" edge="1">
          <mxGeometry relative="1" as="geometry" />
        </mxCell>
        <mxCell id="IZQVQYXImKXm4vi6CAaF-2" value="SEC_IN_MIN = 60&lt;div&gt;MIN_IN_HR = 60&lt;/div&gt;&lt;div&gt;HR_IN_DAY = 24&lt;/div&gt;" style="rounded=0;whiteSpace=wrap;html=1;" parent="1" vertex="1">
          <mxGeometry x="290" y="140" width="210" height="60" as="geometry" />
        </mxCell>
        <mxCell id="IZQVQYXImKXm4vi6CAaF-7" value="" style="edgeStyle=orthogonalEdgeStyle;rounded=0;orthogonalLoop=1;jettySize=auto;html=1;" parent="1" source="IZQVQYXImKXm4vi6CAaF-4" target="IZQVQYXImKXm4vi6CAaF-6" edge="1">
          <mxGeometry relative="1" as="geometry" />
        </mxCell>
        <mxCell id="IZQVQYXImKXm4vi6CAaF-4" value="SEC_IN_HR = SEC_IN_MIN * MIN_IN_HR&lt;div&gt;SEC_IN_DAY = SEC_IN_HR * HR_IN_DAY&lt;/div&gt;" style="whiteSpace=wrap;html=1;rounded=0;" parent="1" vertex="1">
          <mxGeometry x="260" y="230" width="270" height="60" as="geometry" />
        </mxCell>
        <mxCell id="IZQVQYXImKXm4vi6CAaF-9" value="" style="edgeStyle=orthogonalEdgeStyle;rounded=0;orthogonalLoop=1;jettySize=auto;html=1;" parent="1" source="IZQVQYXImKXm4vi6CAaF-6" target="IZQVQYXImKXm4vi6CAaF-8" edge="1">
          <mxGeometry relative="1" as="geometry" />
        </mxCell>
        <mxCell id="IZQVQYXImKXm4vi6CAaF-6" value="tsec" style="shape=parallelogram;perimeter=parallelogramPerimeter;whiteSpace=wrap;html=1;fixedSize=1;rounded=0;" parent="1" vertex="1">
          <mxGeometry x="335" y="320" width="120" height="40" as="geometry" />
        </mxCell>
        <mxCell id="IZQVQYXImKXm4vi6CAaF-11" value="" style="edgeStyle=orthogonalEdgeStyle;rounded=0;orthogonalLoop=1;jettySize=auto;html=1;" parent="1" source="IZQVQYXImKXm4vi6CAaF-8" target="IZQVQYXImKXm4vi6CAaF-10" edge="1">
          <mxGeometry relative="1" as="geometry" />
        </mxCell>
        <mxCell id="IZQVQYXImKXm4vi6CAaF-8" value="days = tsec // SEC_IN_DAY" style="whiteSpace=wrap;html=1;rounded=0;" parent="1" vertex="1">
          <mxGeometry x="300" y="390" width="190" height="40" as="geometry" />
        </mxCell>
        <mxCell id="IZQVQYXImKXm4vi6CAaF-13" value="" style="edgeStyle=orthogonalEdgeStyle;rounded=0;orthogonalLoop=1;jettySize=auto;html=1;" parent="1" source="IZQVQYXImKXm4vi6CAaF-10" target="IZQVQYXImKXm4vi6CAaF-12" edge="1">
          <mxGeometry relative="1" as="geometry" />
        </mxCell>
        <mxCell id="IZQVQYXImKXm4vi6CAaF-10" value="tleft = tsec % SEC_IN_DAY" style="whiteSpace=wrap;html=1;rounded=0;" parent="1" vertex="1">
          <mxGeometry x="290" y="470" width="210" height="40" as="geometry" />
        </mxCell>
        <mxCell id="IZQVQYXImKXm4vi6CAaF-15" value="" style="edgeStyle=orthogonalEdgeStyle;rounded=0;orthogonalLoop=1;jettySize=auto;html=1;" parent="1" source="IZQVQYXImKXm4vi6CAaF-12" target="IZQVQYXImKXm4vi6CAaF-14" edge="1">
          <mxGeometry relative="1" as="geometry" />
        </mxCell>
        <mxCell id="IZQVQYXImKXm4vi6CAaF-12" value="hours = tleft // SEC_IN_HR" style="whiteSpace=wrap;html=1;rounded=0;" parent="1" vertex="1">
          <mxGeometry x="290" y="550" width="210" height="40" as="geometry" />
        </mxCell>
        <mxCell id="IZQVQYXImKXm4vi6CAaF-17" value="" style="edgeStyle=orthogonalEdgeStyle;rounded=0;orthogonalLoop=1;jettySize=auto;html=1;" parent="1" source="IZQVQYXImKXm4vi6CAaF-14" target="IZQVQYXImKXm4vi6CAaF-16" edge="1">
          <mxGeometry relative="1" as="geometry" />
        </mxCell>
        <mxCell id="IZQVQYXImKXm4vi6CAaF-14" value="tleft = tleft % SEC_IN_HR" style="whiteSpace=wrap;html=1;rounded=0;" parent="1" vertex="1">
          <mxGeometry x="290" y="620" width="210" height="40" as="geometry" />
        </mxCell>
        <mxCell id="IZQVQYXImKXm4vi6CAaF-19" value="" style="edgeStyle=orthogonalEdgeStyle;rounded=0;orthogonalLoop=1;jettySize=auto;html=1;" parent="1" source="IZQVQYXImKXm4vi6CAaF-16" target="IZQVQYXImKXm4vi6CAaF-18" edge="1">
          <mxGeometry relative="1" as="geometry" />
        </mxCell>
        <mxCell id="IZQVQYXImKXm4vi6CAaF-16" value="mins = tleft // SEC_IN_MIN" style="whiteSpace=wrap;html=1;rounded=0;" parent="1" vertex="1">
          <mxGeometry x="290" y="690" width="210" height="40" as="geometry" />
        </mxCell>
        <mxCell id="IZQVQYXImKXm4vi6CAaF-21" value="" style="edgeStyle=orthogonalEdgeStyle;rounded=0;orthogonalLoop=1;jettySize=auto;html=1;" parent="1" source="IZQVQYXImKXm4vi6CAaF-18" target="IZQVQYXImKXm4vi6CAaF-20" edge="1">
          <mxGeometry relative="1" as="geometry" />
        </mxCell>
        <mxCell id="IZQVQYXImKXm4vi6CAaF-18" value="secs = tleft % SEC_IN_MIN" style="whiteSpace=wrap;html=1;rounded=0;" parent="1" vertex="1">
          <mxGeometry x="290" y="760" width="210" height="40" as="geometry" />
        </mxCell>
        <mxCell id="IZQVQYXImKXm4vi6CAaF-23" value="" style="edgeStyle=orthogonalEdgeStyle;rounded=0;orthogonalLoop=1;jettySize=auto;html=1;" parent="1" source="IZQVQYXImKXm4vi6CAaF-20" target="IZQVQYXImKXm4vi6CAaF-22" edge="1">
          <mxGeometry relative="1" as="geometry" />
        </mxCell>
        <mxCell id="IZQVQYXImKXm4vi6CAaF-20" value="days, hours, mins, secs" style="shape=parallelogram;perimeter=parallelogramPerimeter;whiteSpace=wrap;html=1;fixedSize=1;rounded=0;" parent="1" vertex="1">
          <mxGeometry x="270" y="830" width="250" height="40" as="geometry" />
        </mxCell>
        <mxCell id="IZQVQYXImKXm4vi6CAaF-22" value="end" style="ellipse;whiteSpace=wrap;html=1;" parent="1" vertex="1">
          <mxGeometry x="335" y="900" width="120" height="40" as="geometry" />
        </mxCell>
      </root>
    </mxGraphModel>
  </diagram>
</mxfile>
